<svg id="svg" version="1.1" xmlns="http://www.w3.org/2000/svg" xmlns:xlink="http://www.w3.org/1999/xlink" width="400" height="393.4782608695652" viewBox="0, 0, 400,393.4782608695652"><symbol id="diamond"><g id="svgg"><path id="path0" d="M92.851 19.640 C 91.020 21.700,88.800 25.134,74.623 47.835 C 65.814 61.940,63.174 66.190,53.348 82.087 C 50.805 86.201,47.884 90.896,46.857 92.520 C 45.830 94.144,43.128 98.484,40.854 102.165 C 38.579 105.846,34.684 112.136,32.197 116.142 C 25.363 127.152,25.346 127.211,27.778 131.321 C 29.156 133.650,37.779 145.065,46.244 155.766 C 60.622 173.940,66.805 181.733,77.750 195.472 C 84.477 203.917,92.723 214.280,96.073 218.501 C 103.716 228.129,176.359 318.916,183.022 327.165 C 195.074 342.089,196.029 343.198,197.290 343.720 C 198.862 344.371,201.873 344.396,203.033 343.768 C 204.236 343.118,209.263 336.890,266.335 265.354 C 276.268 252.904,291.679 233.593,300.582 222.441 C 309.485 211.289,323.404 193.844,331.514 183.672 C 339.624 173.501,352.428 157.468,359.967 148.043 L 373.675 130.906 373.500 129.230 C 373.168 126.058,369.516 119.345,357.171 99.213 C 349.863 87.296,349.740 87.097,339.536 70.669 C 335.904 64.823,331.840 58.268,330.505 56.102 C 327.198 50.738,316.752 34.119,315.162 31.693 C 314.453 30.610,312.581 27.687,311.002 25.197 C 309.422 22.707,307.505 20.005,306.741 19.193 L 305.352 17.717 199.957 17.717 L 94.561 17.717 92.851 19.640 M184.788 32.140 C 187.077 32.454,187.075 32.477,184.396 37.217 C 180.456 44.189,160.205 79.578,157.368 84.449 C 155.855 87.047,153.084 91.831,151.211 95.079 C 144.818 106.162,142.356 110.236,142.049 110.236 C 140.953 110.236,138.095 103.847,122.769 67.126 C 121.684 64.528,119.946 60.364,118.906 57.874 C 117.866 55.384,116.113 51.175,115.010 48.521 C 113.908 45.867,112.118 41.589,111.033 39.014 C 108.145 32.162,108.051 32.525,112.795 32.261 C 118.425 31.948,182.599 31.840,184.788 32.140 M291.155 32.972 C 291.006 33.568,289.994 36.181,288.904 38.780 C 286.622 44.221,285.642 46.570,276.176 69.291 C 272.342 78.494,268.447 87.795,267.521 89.961 C 266.595 92.126,264.296 97.530,262.412 101.969 C 258.096 112.141,258.387 111.845,256.278 108.211 C 255.354 106.618,254.115 104.518,253.526 103.543 C 252.936 102.569,249.397 96.457,245.662 89.961 C 241.926 83.465,238.037 76.732,237.021 75.000 C 228.041 59.694,213.342 33.358,213.521 32.894 C 213.836 32.073,214.710 32.053,255.259 31.967 L 291.424 31.890 291.155 32.972 M203.763 46.169 C 205.545 49.127,207.437 52.307,207.965 53.234 C 208.493 54.162,210.170 57.047,211.691 59.646 C 215.419 66.017,219.028 72.284,238.861 106.829 C 243.069 114.158,246.421 120.245,246.311 120.356 C 245.663 121.004,153.937 120.968,153.937 120.320 C 153.937 119.571,154.911 117.552,157.090 113.780 C 157.904 112.372,160.473 107.854,162.799 103.740 C 167.578 95.288,171.924 87.728,178.073 77.165 C 179.145 75.325,180.690 72.667,181.507 71.260 C 190.988 54.932,195.403 47.452,198.537 42.406 C 200.060 39.954,199.984 39.900,203.763 46.169 M97.533 44.440 C 98.076 45.658,99.010 47.805,99.608 49.213 C 100.206 50.620,102.145 55.138,103.917 59.252 C 108.940 70.913,113.611 82.013,120.070 97.638 C 122.710 104.026,125.830 111.512,127.002 114.275 C 129.482 120.118,129.457 119.973,128.051 120.367 C 126.302 120.856,47.752 120.744,47.260 120.252 C 46.966 119.958,47.758 118.329,49.943 114.740 C 54.564 107.146,55.907 104.974,59.053 100.000 C 60.628 97.510,62.395 94.675,62.979 93.701 C 64.401 91.327,75.885 72.935,81.908 63.386 C 84.571 59.163,87.633 54.291,88.714 52.559 C 89.794 50.827,90.975 48.967,91.339 48.425 C 91.702 47.884,92.831 46.150,93.848 44.572 C 95.939 41.325,96.139 41.318,97.533 44.440 M306.589 45.021 C 309.490 49.540,321.304 68.494,329.323 81.496 C 333.397 88.100,337.785 95.187,339.076 97.244 C 345.675 107.763,353.149 119.909,353.149 120.113 C 353.150 120.791,271.508 121.193,271.091 120.518 C 270.799 120.045,271.245 118.813,275.101 109.449 C 276.929 105.010,279.363 99.075,280.511 96.260 C 284.350 86.845,285.318 84.506,289.881 73.622 C 295.530 60.148,297.490 55.541,299.595 50.787 C 304.274 40.222,303.772 40.635,306.589 45.021 M118.082 135.391 L 135.179 135.630 138.637 147.835 C 140.538 154.547,142.539 161.545,143.083 163.386 C 143.626 165.226,147.006 177.096,150.594 189.764 C 154.181 202.431,157.719 214.833,158.457 217.323 C 159.195 219.813,160.433 224.154,161.209 226.969 C 161.985 229.783,163.140 233.858,163.775 236.024 C 164.410 238.189,167.067 247.490,169.679 256.693 C 172.291 265.896,174.887 275.020,175.447 276.969 C 176.006 278.917,177.049 282.638,177.763 285.236 C 178.478 287.835,179.676 292.175,180.427 294.882 C 182.803 303.452,182.753 303.909,179.829 300.277 C 162.116 278.276,98.268 198.225,62.156 152.739 C 46.875 133.492,48.104 135.534,51.673 135.331 C 55.786 135.097,99.887 135.137,118.082 135.391 M241.843 135.297 C 249.638 135.605,249.473 135.540,248.861 138.050 C 247.965 141.723,235.743 185.283,231.092 201.378 C 230.466 203.543,229.167 208.150,228.204 211.614 C 227.241 215.079,225.207 222.254,223.685 227.559 C 215.033 257.709,212.041 268.180,211.421 270.472 C 210.466 274.002,207.342 284.864,205.306 291.732 C 204.376 294.872,202.954 299.788,202.147 302.656 C 199.899 310.643,199.614 310.416,196.332 298.031 C 196.016 296.841,194.932 293.031,193.922 289.567 C 190.291 277.110,188.962 272.475,186.024 262.008 C 184.383 256.161,182.621 249.961,182.109 248.228 C 181.597 246.496,180.732 243.484,180.185 241.535 C 178.815 236.647,175.492 225.041,173.367 217.717 C 172.393 214.360,171.535 211.348,171.460 211.024 C 171.385 210.699,170.432 207.333,169.344 203.543 C 165.517 190.223,155.129 153.275,152.962 145.276 C 152.170 142.352,151.357 139.447,151.155 138.819 C 150.183 135.800,150.534 135.518,155.512 135.316 C 161.651 135.067,235.594 135.051,241.843 135.297 M348.130 135.296 C 351.572 135.621,351.735 135.200,344.773 143.945 C 341.476 148.085,336.479 154.375,333.667 157.921 C 327.275 165.984,307.214 191.166,285.876 217.913 C 271.858 235.485,256.347 254.932,245.211 268.898 C 228.756 289.533,218.527 302.113,218.055 302.297 C 217.339 302.574,218.066 299.702,223.617 280.315 C 224.454 277.392,226.231 271.102,227.566 266.339 C 228.901 261.575,230.762 255.020,231.701 251.772 C 232.640 248.524,234.496 241.969,235.826 237.205 C 239.193 225.138,246.581 199.015,248.629 191.929 C 249.568 188.681,251.429 182.126,252.765 177.362 C 254.101 172.598,255.814 166.575,256.572 163.976 C 257.330 161.378,258.621 156.860,259.442 153.937 C 262.478 143.113,264.550 136.106,264.783 135.872 C 265.447 135.203,341.574 134.677,348.130 135.296 " stroke="none" fill="#060606" fill-rule="evenodd"></path><path id="path1" d="M0.000 196.850 L 0.000 393.701 200.000 393.701 L 400.000 393.701 400.000 196.850 L 400.000 0.000 200.000 0.000 L 0.000 0.000 0.000 196.850 M306.767 18.406 C 307.322 19.001,308.482 20.551,309.345 21.850 C 310.855 24.127,311.606 25.293,316.818 33.465 C 320.414 39.102,326.270 48.450,331.988 57.677 C 334.806 62.224,337.512 66.565,338.002 67.323 C 339.011 68.884,345.163 78.818,348.243 83.858 C 349.367 85.699,352.641 91.014,355.518 95.669 C 372.647 123.390,375.347 128.816,373.451 131.709 C 373.085 132.267,367.516 139.313,361.076 147.366 C 349.316 162.071,336.221 178.486,314.376 205.906 C 296.977 227.745,274.658 255.696,263.957 269.049 C 258.771 275.520,254.176 281.278,253.746 281.844 C 253.316 282.411,249.418 287.303,245.084 292.717 C 240.750 298.130,236.850 303.031,236.417 303.608 C 232.394 308.967,205.639 341.882,204.385 343.014 C 200.543 346.486,196.951 345.202,191.442 338.386 C 182.876 327.789,118.761 247.748,116.859 245.276 C 116.275 244.518,114.414 242.187,112.722 240.097 C 111.030 238.006,105.659 231.283,100.787 225.156 C 95.915 219.030,89.360 210.793,86.220 206.853 C 77.495 195.904,64.420 179.460,60.423 174.409 C 58.452 171.919,54.804 167.313,52.316 164.173 C 25.748 130.645,24.379 128.555,26.442 124.679 C 26.908 123.803,35.181 110.380,36.799 107.874 C 37.289 107.116,39.820 103.041,42.424 98.819 C 47.049 91.321,55.930 76.972,60.821 69.094 C 62.166 66.929,64.520 63.120,66.052 60.630 C 67.585 58.140,70.507 53.445,72.545 50.197 C 74.584 46.949,77.464 42.343,78.945 39.961 C 84.974 30.266,91.868 19.806,93.022 18.602 L 94.249 17.323 200.004 17.323 L 305.758 17.323 306.767 18.406 M114.075 32.566 C 111.314 32.640,109.055 32.769,109.055 32.853 C 109.055 33.001,118.926 56.873,122.860 66.240 C 123.929 68.784,125.712 73.036,126.822 75.689 C 127.932 78.342,129.378 81.752,130.034 83.268 C 130.691 84.783,131.623 86.998,132.106 88.189 C 135.020 95.372,141.533 109.843,141.852 109.843 C 142.099 109.843,145.592 103.955,153.534 90.157 C 155.840 86.152,160.533 78.002,163.964 72.047 C 167.394 66.093,171.919 58.209,174.020 54.528 C 176.120 50.846,178.953 45.886,180.315 43.504 C 184.895 35.495,186.234 32.954,185.997 32.716 C 185.748 32.467,122.656 32.335,114.075 32.566 M217.421 32.577 C 215.418 32.648,213.780 32.837,213.780 32.996 C 213.780 33.529,224.349 52.098,245.194 88.189 C 246.382 90.246,247.800 92.726,248.345 93.701 C 248.890 94.675,250.166 96.890,251.181 98.622 C 252.197 100.354,254.145 103.685,255.511 106.023 C 256.877 108.361,258.131 110.132,258.298 109.960 C 258.643 109.603,260.599 105.111,266.919 90.157 C 276.210 68.176,279.903 59.345,284.044 49.213 C 285.061 46.722,286.132 44.154,286.424 43.504 C 287.182 41.817,290.945 32.596,290.945 32.426 C 290.945 32.253,222.562 32.393,217.421 32.577 M199.012 42.562 C 196.286 46.970,195.474 48.325,191.136 55.709 C 165.883 98.685,154.070 119.653,154.813 120.178 C 155.273 120.502,245.267 120.219,245.594 119.892 C 245.668 119.817,243.616 116.064,241.032 111.551 C 238.448 107.039,234.870 100.778,233.079 97.638 C 229.856 91.985,227.418 87.765,223.416 80.906 C 222.278 78.957,220.296 75.502,219.009 73.228 C 215.705 67.388,211.291 59.796,206.844 52.303 C 204.743 48.763,202.361 44.733,201.552 43.349 L 200.081 40.832 199.012 42.562 M93.826 45.374 C 90.530 50.493,83.774 61.178,82.687 62.992 C 81.653 64.716,73.984 76.955,71.462 80.906 C 69.141 84.541,52.890 110.779,50.186 115.258 C 48.715 117.695,47.643 119.821,47.804 119.982 C 48.265 120.444,127.247 120.345,128.015 119.882 C 128.716 119.460,128.911 120.003,122.814 105.410 C 120.768 100.513,118.112 94.146,114.933 86.513 C 103.370 58.746,96.344 42.520,95.886 42.520 C 95.764 42.520,94.837 43.804,93.826 45.374 M302.109 46.358 C 298.687 53.727,288.978 76.758,277.670 104.331 C 271.444 119.510,271.318 119.860,271.973 120.238 C 272.533 120.562,351.955 120.224,352.282 119.896 C 352.434 119.745,350.647 116.615,348.452 113.189 C 347.620 111.890,342.555 103.740,337.196 95.079 C 331.838 86.417,324.932 75.256,321.850 70.276 C 318.768 65.295,313.894 57.500,311.019 52.953 C 308.144 48.406,305.507 44.199,305.159 43.605 C 304.227 42.011,304.055 42.166,302.109 46.358 M158.661 135.837 C 154.656 135.974,151.320 136.117,151.248 136.153 C 150.970 136.297,151.676 139.043,155.567 152.953 C 160.624 171.035,170.271 205.211,172.236 212.008 C 174.500 219.841,175.774 224.305,177.570 230.709 C 178.390 233.632,179.799 238.593,180.700 241.732 C 181.601 244.872,183.225 250.541,184.309 254.331 C 185.392 258.120,187.165 264.321,188.250 268.110 C 189.334 271.900,190.282 275.266,190.357 275.591 C 190.433 275.915,191.292 278.927,192.266 282.283 C 193.241 285.640,194.751 290.866,195.622 293.898 C 198.655 304.456,199.715 307.874,199.955 307.872 C 200.088 307.871,200.762 305.878,201.454 303.443 C 202.145 301.008,203.795 295.295,205.121 290.748 C 206.447 286.201,208.209 280.089,209.037 277.165 C 209.865 274.242,211.998 266.801,213.777 260.630 C 215.556 254.459,217.442 247.815,217.968 245.866 C 218.494 243.917,219.526 240.285,220.261 237.795 C 222.352 230.707,224.791 222.185,225.838 218.307 C 226.364 216.358,227.318 212.992,227.956 210.827 C 228.595 208.661,230.285 202.726,231.712 197.638 C 235.314 184.791,238.258 174.338,240.749 165.551 C 245.251 149.671,245.810 147.664,247.272 142.139 C 248.101 139.007,248.685 136.349,248.570 136.234 C 247.915 135.578,175.565 135.258,158.661 135.837 M274.146 135.806 C 269.346 135.926,265.324 136.119,265.208 136.235 C 264.985 136.459,262.585 144.262,261.822 147.244 C 261.572 148.219,260.593 151.673,259.645 154.921 C 258.698 158.169,256.573 165.610,254.923 171.457 C 253.273 177.303,251.411 183.858,250.785 186.024 C 250.158 188.189,248.475 194.124,247.044 199.213 C 245.613 204.301,243.581 211.476,242.528 215.157 C 240.664 221.675,237.940 231.296,234.448 243.701 C 233.503 247.057,231.993 252.372,231.093 255.512 C 230.193 258.652,228.587 264.321,227.526 268.110 C 226.464 271.900,224.789 277.835,223.805 281.299 C 221.443 289.610,218.504 300.473,218.504 300.894 C 218.504 301.540,225.935 292.323,271.274 235.445 C 278.087 226.898,290.482 211.364,298.819 200.925 C 320.736 173.481,327.297 165.235,346.851 140.551 L 350.438 136.024 342.640 135.782 C 333.161 135.488,286.233 135.504,274.146 135.806 M49.606 136.050 C 49.606 136.174,50.289 137.105,51.123 138.118 C 51.957 139.132,54.737 142.618,57.301 145.866 C 59.864 149.114,63.934 154.252,66.345 157.283 C 77.172 170.897,88.315 184.914,92.481 190.157 C 98.475 197.703,115.713 219.348,122.425 227.756 C 125.364 231.437,128.120 234.918,128.549 235.491 C 128.979 236.064,132.862 240.937,137.178 246.318 C 154.157 267.490,160.466 275.383,161.220 276.398 C 161.952 277.382,170.858 288.452,178.082 297.356 C 179.801 299.474,181.285 301.129,181.381 301.034 C 181.631 300.784,177.692 286.132,174.436 275.197 C 174.017 273.789,173.029 270.246,172.241 267.323 C 171.452 264.400,170.471 260.945,170.059 259.646 C 169.648 258.346,168.622 254.803,167.781 251.772 C 165.674 244.181,154.137 203.675,152.980 199.803 C 152.462 198.071,151.555 194.882,150.964 192.717 C 150.373 190.551,149.292 186.770,148.563 184.314 C 147.833 181.857,146.899 178.580,146.487 177.030 C 145.782 174.377,144.851 171.108,140.752 156.890 C 139.815 153.642,138.322 148.415,137.434 145.276 C 136.545 142.136,135.579 138.770,135.287 137.795 L 134.756 136.024 92.181 135.923 C 68.765 135.868,49.606 135.925,49.606 136.050 " stroke="none" fill="#fbfbfb" fill-rule="evenodd"></path><path id="path2" d="M92.892 18.799 L 91.535 20.276 93.012 18.919 C 93.824 18.173,94.488 17.508,94.488 17.442 C 94.488 17.142,94.155 17.425,92.892 18.799 M305.512 17.446 C 305.512 17.514,306.088 18.090,306.791 18.726 L 308.071 19.882 306.915 18.602 C 305.837 17.410,305.512 17.142,305.512 17.446 M146.181 32.183 C 148.086 32.256,151.098 32.255,152.874 32.182 C 154.649 32.110,153.091 32.050,149.409 32.051 C 145.728 32.051,144.275 32.111,146.181 32.183 M257.804 32.185 C 263.936 32.246,273.857 32.246,279.851 32.185 C 285.844 32.124,280.827 32.074,268.701 32.074 C 256.575 32.074,251.671 32.124,257.804 32.185 M112.894 32.574 C 114.031 32.653,115.891 32.653,117.028 32.574 C 118.164 32.494,117.234 32.429,114.961 32.429 C 112.687 32.429,111.757 32.494,112.894 32.574 M182.087 32.517 C 183.931 32.814,186.525 32.851,186.357 32.579 C 186.256 32.416,185.077 32.308,183.737 32.337 C 182.396 32.367,181.654 32.448,182.087 32.517 M216.634 32.570 C 217.446 32.655,218.775 32.655,219.587 32.570 C 220.399 32.485,219.734 32.416,218.110 32.416 C 216.486 32.416,215.822 32.485,216.634 32.570 M81.646 35.531 C 80.291 37.831,80.203 38.027,80.893 37.205 C 81.692 36.252,82.382 35.039,82.124 35.039 C 82.021 35.039,81.806 35.261,81.646 35.531 M301.245 47.458 C 300.585 48.906,300.711 49.214,301.425 47.898 C 301.758 47.284,301.956 46.707,301.866 46.617 C 301.776 46.527,301.497 46.905,301.245 47.458 M176.969 49.213 C 176.633 49.862,176.446 50.394,176.555 50.394 C 176.663 50.394,177.026 49.862,177.362 49.213 C 177.698 48.563,177.884 48.031,177.776 48.031 C 177.668 48.031,177.304 48.563,176.969 49.213 M169.094 62.992 C 168.759 63.642,168.572 64.173,168.681 64.173 C 168.789 64.173,169.152 63.642,169.488 62.992 C 169.824 62.343,170.010 61.811,169.902 61.811 C 169.794 61.811,169.430 62.343,169.094 62.992 M105.933 65.157 C 105.933 65.374,106.187 65.994,106.496 66.535 C 106.806 67.077,107.059 67.343,107.059 67.126 C 107.059 66.909,106.806 66.289,106.496 65.748 C 106.187 65.207,105.933 64.941,105.933 65.157 M184.449 66.535 C 184.113 67.185,183.927 67.717,184.035 67.717 C 184.143 67.717,184.507 67.185,184.843 66.535 C 185.178 65.886,185.365 65.354,185.256 65.354 C 185.148 65.354,184.785 65.886,184.449 66.535 M236.024 72.835 C 236.360 73.484,236.723 74.016,236.831 74.016 C 236.940 74.016,236.753 73.484,236.417 72.835 C 236.081 72.185,235.718 71.654,235.610 71.654 C 235.501 71.654,235.688 72.185,236.024 72.835 M134.280 93.898 C 134.280 94.114,134.533 94.734,134.843 95.276 C 135.152 95.817,135.405 96.083,135.405 95.866 C 135.405 95.650,135.152 95.030,134.843 94.488 C 134.533 93.947,134.280 93.681,134.280 93.898 M138.222 102.953 C 138.222 103.169,138.561 103.967,138.976 104.724 C 139.391 105.482,139.731 105.925,139.731 105.709 C 139.731 105.492,139.391 104.695,138.976 103.937 C 138.561 103.179,138.222 102.736,138.222 102.953 M347.194 111.220 C 347.406 111.654,347.869 112.362,348.221 112.795 L 348.862 113.583 348.476 112.795 C 348.263 112.362,347.801 111.654,347.448 111.220 L 346.807 110.433 347.194 111.220 M244.291 117.323 C 244.627 117.972,244.991 118.504,245.099 118.504 C 245.207 118.504,245.021 117.972,244.685 117.323 C 244.349 116.673,243.986 116.142,243.877 116.142 C 243.769 116.142,243.955 116.673,244.291 117.323 M154.921 118.110 C 154.585 118.760,154.399 119.291,154.507 119.291 C 154.616 119.291,154.979 118.760,155.315 118.110 C 155.651 117.461,155.837 116.929,155.729 116.929 C 155.621 116.929,155.257 117.461,154.921 118.110 M352.184 119.390 C 352.431 120.038,351.477 120.084,335.967 120.173 L 319.488 120.267 335.803 120.374 C 352.038 120.481,353.603 120.370,352.418 119.193 C 352.020 118.798,351.974 118.837,352.184 119.390 M227.165 120.079 L 208.465 120.287 227.264 120.380 C 239.596 120.441,246.063 120.337,246.063 120.079 C 246.063 119.862,246.019 119.727,245.965 119.778 C 245.910 119.829,237.451 119.964,227.165 120.079 M51.476 120.370 C 52.830 120.447,55.044 120.447,56.398 120.370 C 57.751 120.293,56.644 120.230,53.937 120.230 C 51.230 120.230,50.123 120.293,51.476 120.370 M121.370 120.369 C 122.405 120.450,124.000 120.449,124.913 120.366 C 125.827 120.284,124.980 120.217,123.031 120.218 C 121.083 120.220,120.335 120.287,121.370 120.369 M49.470 135.728 C 49.305 135.996,75.779 135.993,111.417 135.723 C 118.888 135.666,108.047 135.577,87.326 135.526 C 66.606 135.475,49.571 135.566,49.470 135.728 M157.562 135.725 C 159.014 135.800,161.494 135.801,163.073 135.726 C 164.653 135.651,163.465 135.589,160.433 135.588 C 157.402 135.588,156.109 135.649,157.562 135.725 M232.600 135.727 C 234.831 135.797,238.374 135.797,240.474 135.726 C 242.573 135.656,240.748 135.598,236.417 135.598 C 232.087 135.599,230.369 135.657,232.600 135.727 M272.539 135.726 C 274.434 135.798,277.534 135.798,279.429 135.726 C 281.324 135.654,279.774 135.595,275.984 135.595 C 272.195 135.595,270.645 135.654,272.539 135.726 M343.423 135.728 C 348.510 135.813,350.353 135.967,350.154 136.290 C 349.984 136.565,350.055 136.627,350.339 136.451 C 351.592 135.677,349.816 135.440,343.382 135.522 L 336.417 135.611 343.423 135.728 M264.829 136.089 C 264.685 136.234,264.570 136.544,264.573 136.778 C 264.577 137.067,264.672 137.060,264.868 136.758 C 265.027 136.513,265.512 136.223,265.945 136.115 C 266.707 135.925,266.705 135.917,265.912 135.872 C 265.461 135.847,264.974 135.945,264.829 136.089 M159.110 166.535 C 159.110 166.860,159.263 167.480,159.449 167.913 C 159.662 168.410,159.787 168.482,159.787 168.110 C 159.787 167.785,159.635 167.165,159.449 166.732 C 159.236 166.236,159.110 166.163,159.110 166.535 M300.940 222.324 C 300.105 223.343,299.628 224.049,299.879 223.894 C 300.415 223.563,302.908 220.472,302.640 220.472 C 302.539 220.472,301.774 221.306,300.940 222.324 M160.685 226.772 C 160.685 227.096,160.838 227.717,161.024 228.150 C 161.237 228.646,161.362 228.719,161.362 228.346 C 161.362 228.022,161.210 227.402,161.024 226.969 C 160.810 226.472,160.685 226.399,160.685 226.772 M268.263 263.269 C 267.428 264.288,266.951 264.994,267.202 264.838 C 267.738 264.507,270.231 261.417,269.962 261.417 C 269.862 261.417,269.097 262.251,268.263 263.269 M144.488 279.921 C 145.174 280.787,145.824 281.496,145.932 281.496 C 146.041 281.496,145.568 280.787,144.882 279.921 C 144.196 279.055,143.546 278.346,143.438 278.346 C 143.330 278.346,143.802 279.055,144.488 279.921 M176.137 295.392 C 176.971 296.411,177.736 297.244,177.836 297.244 C 178.105 297.244,175.612 294.154,175.076 293.823 C 174.825 293.668,175.302 294.374,176.137 295.392 M180.679 300.889 C 181.795 302.152,181.890 302.185,181.890 301.312 C 181.890 300.951,181.771 300.775,181.626 300.919 C 181.482 301.064,180.994 300.874,180.544 300.496 C 179.947 299.995,179.984 300.102,180.679 300.889 " stroke="none" fill="#a0a0a0" fill-rule="evenodd"></path><path id="path3" d="M93.286 18.799 L 91.929 20.276 93.325 18.997 L 94.721 17.718 200.018 17.618 L 305.315 17.518 199.979 17.421 L 94.643 17.323 93.286 18.799 M305.512 17.840 C 305.512 17.907,306.088 18.483,306.791 19.119 L 308.071 20.276 306.915 18.996 C 305.837 17.803,305.512 17.536,305.512 17.840 M119.605 32.183 C 121.402 32.256,124.237 32.256,125.905 32.182 C 127.572 32.108,126.102 32.049,122.638 32.049 C 119.173 32.050,117.809 32.110,119.605 32.183 M174.705 32.183 C 176.491 32.256,179.414 32.256,181.201 32.183 C 182.987 32.110,181.526 32.050,177.953 32.050 C 174.380 32.050,172.918 32.110,174.705 32.183 M221.752 32.182 C 223.430 32.256,226.176 32.256,227.854 32.182 C 229.532 32.109,228.159 32.048,224.803 32.048 C 221.447 32.048,220.074 32.109,221.752 32.182 M214.370 35.433 C 214.706 36.083,215.069 36.614,215.178 36.614 C 215.286 36.614,215.100 36.083,214.764 35.433 C 214.428 34.783,214.064 34.252,213.956 34.252 C 213.848 34.252,214.034 34.783,214.370 35.433 M138.976 105.265 C 138.976 105.690,140.540 108.661,140.764 108.661 C 140.872 108.661,140.581 107.908,140.117 106.988 C 139.204 105.178,138.976 104.834,138.976 105.265 M62.723 120.767 C 66.797 120.831,73.352 120.831,77.290 120.767 C 81.227 120.703,77.894 120.650,69.882 120.651 C 61.870 120.651,58.648 120.703,62.723 120.767 M100.321 120.767 C 104.504 120.831,111.236 120.831,115.282 120.767 C 119.328 120.703,115.906 120.651,107.677 120.651 C 99.449 120.651,96.139 120.703,100.321 120.767 M171.358 120.768 C 181.048 120.826,196.905 120.826,206.594 120.768 C 216.284 120.709,208.356 120.661,188.976 120.661 C 169.596 120.661,161.668 120.709,171.358 120.768 M286.713 120.768 C 295.320 120.827,309.405 120.827,318.012 120.768 C 326.619 120.708,319.577 120.660,302.362 120.660 C 285.148 120.660,278.105 120.708,286.713 120.768 M26.076 127.559 C 26.076 128.317,26.157 128.627,26.256 128.248 C 26.355 127.869,26.355 127.249,26.256 126.870 C 26.157 126.491,26.076 126.801,26.076 127.559 M66.662 135.334 C 73.770 135.395,85.285 135.395,92.253 135.334 C 99.221 135.274,93.406 135.225,79.331 135.225 C 65.256 135.225,59.555 135.274,66.662 135.334 M178.672 135.335 C 190.002 135.393,208.428 135.393,219.617 135.335 C 230.806 135.276,221.535 135.229,199.016 135.229 C 176.496 135.229,167.341 135.277,178.672 135.335 M291.634 135.335 C 301.865 135.393,318.607 135.393,328.839 135.335 C 339.070 135.276,330.699 135.228,310.236 135.228 C 289.774 135.228,281.403 135.276,291.634 135.335 M152.067 135.704 C 152.446 135.803,153.066 135.803,153.445 135.704 C 153.824 135.605,153.514 135.524,152.756 135.524 C 151.998 135.524,151.688 135.605,152.067 135.704 M246.363 135.712 C 246.853 135.806,247.561 135.802,247.938 135.704 C 248.314 135.605,247.913 135.528,247.047 135.532 C 246.181 135.537,245.873 135.617,246.363 135.712 M266.048 135.712 C 266.538 135.806,267.246 135.802,267.623 135.704 C 267.999 135.605,267.598 135.528,266.732 135.532 C 265.866 135.537,265.558 135.617,266.048 135.712 " stroke="none" fill="#747474" fill-rule="evenodd"></path><path id="path4" d="M132.185 32.183 C 134.188 32.255,137.466 32.255,139.469 32.183 C 141.471 32.112,139.833 32.053,135.827 32.053 C 131.821 32.053,130.182 32.112,132.185 32.183 M159.744 32.183 C 161.964 32.254,165.595 32.254,167.815 32.183 C 170.034 32.113,168.219 32.056,163.780 32.056 C 159.341 32.056,157.525 32.113,159.744 32.183 M234.765 32.184 C 237.105 32.253,240.825 32.253,243.033 32.183 C 245.241 32.113,243.327 32.056,238.780 32.056 C 234.232 32.057,232.426 32.114,234.765 32.184 M86.319 120.763 C 87.564 120.842,89.601 120.842,90.846 120.763 C 92.092 120.685,91.073 120.621,88.583 120.621 C 86.093 120.621,85.074 120.685,86.319 120.763 M127.280 135.725 C 128.751 135.801,131.054 135.801,132.398 135.724 C 133.743 135.647,132.539 135.585,129.724 135.586 C 126.909 135.587,125.810 135.649,127.280 135.725 " stroke="none" fill="#7c7c7c" fill-rule="evenodd"></path></g> </symbol></svg>